<?xml version="1.0" encoding="utf-8"?>
<!-- Generator: Adobe Illustrator 27.3.1, SVG Export Plug-In . SVG Version: 6.00 Build 0)  -->
<svg version="1.1" id="Layer_1" xmlns="http://www.w3.org/2000/svg" xmlns:xlink="http://www.w3.org/1999/xlink" x="0px" y="0px"
	 viewBox="0 0 800 800" style="enable-background:new 0 0 800 800;" xml:space="preserve">
<style type="text/css">
	.st0{fill:none;stroke:#FFFFFF;stroke-width:66.6667;stroke-linecap:round;stroke-linejoin:round;stroke-miterlimit:133.3333;}
</style>
<path class="st0" d="M400,500L300,400 M400,500c46.6-17.7,91.2-40,133.3-66.7 M400,500v166.7c0,0,101-18.3,133.3-66.7
	c36-54,0-166.7,0-166.7 M300,400c17.7-46,40.1-90.1,66.7-131.7c38.8-62.1,92.9-113.2,157.1-148.5c64.2-35.3,136.3-53.6,209.6-53.1
	c0,90.7-26,250-200,366.7 M300,400H133.3c0,0,18.3-101,66.7-133.3c54-36,166.7,0,166.7,0 M150,550c-50,42-66.7,166.7-66.7,166.7
	S208,700,250,650c23.7-28,23.3-71-3-97c-13-12.4-30-19.5-47.9-20.1C181.2,532.4,163.7,538.4,150,550z"/>
</svg>
