<?xml version="1.0" encoding="utf-8"?>
<!-- Generator: Adobe Illustrator 27.3.1, SVG Export Plug-In . SVG Version: 6.00 Build 0)  -->
<svg version="1.1" id="_x35_" xmlns="http://www.w3.org/2000/svg" xmlns:xlink="http://www.w3.org/1999/xlink" x="0px" y="0px"
	 viewBox="0 0 512 512" style="enable-background:new 0 0 512 512;" xml:space="preserve">
<style type="text/css">
	.st0{fill:#DBDCDC;}
	.st1{fill:#BCBCBB;}
	.st2{fill:#0047AB;}
	.st3{fill:#00ABC4;}
	.st4{fill:#FFFFFF;}
	.st5{fill:#BEDFE0;}
	.st6{fill:#5A5553;}
</style>
<g>
	<g>
		<g>
			<path class="st0" d="M153.5,128.2v363H84.1v-363c0-17.6,20.3-43.4,34.7-43.4C133.2,84.8,153.5,110.6,153.5,128.2z"/>
			<rect x="84.1" y="155.3" class="st1" width="69.4" height="14"/>
			<rect x="84.1" y="241.7" class="st1" width="69.4" height="13.9"/>
		</g>
		<g>
			<path class="st0" d="M429.5,128.2v363h-69.4v-363c0-17.6,20.3-43.4,34.7-43.4C409.2,84.8,429.5,110.6,429.5,128.2z"/>
			<rect x="360.1" y="155.3" class="st1" width="69.4" height="14"/>
			<rect x="360.1" y="241.7" class="st1" width="69.4" height="13.9"/>
		</g>
	</g>
	<path class="st2" d="M345.5,121.8v369.5H166.5V121.8C166.5,72.4,219,0,256,0C293.1,0,345.5,72.4,345.5,121.8z"/>
	<rect x="166.5" y="126.1" class="st3" width="178.9" height="13.9"/>
	<rect x="166.5" y="216.6" class="st3" width="178.9" height="13.9"/>
	<path class="st4" d="M443.5,431.3c-1.3,13.4-8.1,18.7-19,20.3c-2.7,0.4-5.7,0.6-8.9,0.6H96.4c-3.2,0-6.1-0.2-8.8-0.6
		c-10.9-1.6-17.8-7-19-20.4c-1.5-15.3,10.3-25.4,45-50.2c38.2-27.4,83.5-60.8,89.3-128.8c0.4-4.7,0.6-9.7,0.6-14.8v-87.8
		c0-0.9,0-1.9,0.1-2.8c1.5-27.6,24.4-65.5,52.5-65.5s51,38,52.5,65.5c0.1,0.9,0.1,1.9,0.1,2.8v87.8c0,5.1,0.2,10,0.6,14.8
		c5.7,68,51,101.4,89.3,128.8C433.1,405.9,444.9,416,443.5,431.3z"/>
	<path class="st5" d="M286.7,184.7c0,10.6-61.3,10.6-61.3,0c0-10.6,13.7-19.3,30.7-19.3C272.9,165.4,286.7,174,286.7,184.7z"/>
	<g>
		<polygon class="st6" points="251.5,512 244.8,464.9 211.1,464.9 204.4,512 		"/>
		<polygon class="st6" points="307.6,512 300.8,464.9 267.2,464.9 260.5,512 		"/>
	</g>
	<path class="st0" d="M215.5,400.6c0,14.2-11.6,25.8-25.8,25.8c-14.2,0-25.8-11.6-25.8-25.8c0-14.2,11.6-25.8,25.8-25.8
		C204,374.9,215.5,386.4,215.5,400.6z"/>
	<rect x="205.1" y="438.3" class="st4" width="101.8" height="29.3"/>
	<path class="st6" d="M267.2,474.5c0,6.2-5,11.2-11.2,11.2l0,0c-6.2,0-11.2-5-11.2-11.2v-90.6c0-6.2,5-11.2,11.2-11.2l0,0
		c6.2,0,11.2,5,11.2,11.2V474.5z"/>
	<path class="st6" d="M308.5,147h-105c1.5-27.6,24.4-65.5,52.5-65.5S307,119.4,308.5,147z"/>
	<path class="st6" d="M202.8,252.3v46.6c0,19.5-29.3,57.2-57.1,79.4c-27.9,22.3-48.8,40.4-54.4,44.6c-8.2,6.3-12.4,17.8-3.7,28.7
		c-10.9-1.6-17.8-7-19-20.4c-1.5-15.3,10.3-25.4,45-50.2C151.8,353.8,197.1,320.3,202.8,252.3z"/>
	<path class="st6" d="M309.2,252.3v46.6c0,19.5,29.3,57.2,57.1,79.4c27.9,22.3,48.8,40.4,54.4,44.6c8.2,6.3,12.4,17.8,3.8,28.7
		c10.9-1.6,17.8-7,19-20.4c1.5-15.3-10.3-25.4-45-50.2C360.2,353.8,314.9,320.3,309.2,252.3z"/>
</g>
</svg>
